%TF.GenerationSoftware,KiCad,Pcbnew,8.0.5*%
%TF.CreationDate,2024-10-19T22:56:50+02:00*%
%TF.ProjectId,pat-mat-pcb,7061742d-6d61-4742-9d70-63622e6b6963,rev?*%
%TF.SameCoordinates,Original*%
%TF.FileFunction,Legend,Top*%
%TF.FilePolarity,Positive*%
%FSLAX46Y46*%
G04 Gerber Fmt 4.6, Leading zero omitted, Abs format (unit mm)*
G04 Created by KiCad (PCBNEW 8.0.5) date 2024-10-19 22:56:50*
%MOMM*%
%LPD*%
G01*
G04 APERTURE LIST*
%ADD10C,0.120000*%
G04 APERTURE END LIST*
D10*
%TO.C,C3*%
X84180000Y-64261948D02*
X84180000Y-65684452D01*
X86000000Y-64261948D02*
X86000000Y-65684452D01*
%TO.C,R3*%
X82796342Y-67549500D02*
X83270858Y-67549500D01*
X82796342Y-68594500D02*
X83270858Y-68594500D01*
%TO.C,R4*%
X86821742Y-67549500D02*
X87296258Y-67549500D01*
X86821742Y-68594500D02*
X87296258Y-68594500D01*
%TO.C,D1*%
X92126000Y-60214000D02*
X88266000Y-60214000D01*
X92126000Y-62214000D02*
X88266000Y-62214000D01*
X92126000Y-62214000D02*
X92126000Y-60214000D01*
%TO.C,R1*%
X89190300Y-65007258D02*
X89190300Y-64532742D01*
X90235300Y-65007258D02*
X90235300Y-64532742D01*
%TO.C,J1*%
X93158000Y-59630000D02*
X94488000Y-59630000D01*
X93158000Y-60960000D02*
X93158000Y-59630000D01*
X93158000Y-62230000D02*
X93158000Y-67370000D01*
X93158000Y-62230000D02*
X95818000Y-62230000D01*
X93158000Y-67370000D02*
X95818000Y-67370000D01*
X95818000Y-62230000D02*
X95818000Y-67370000D01*
%TO.C,C1*%
X81640000Y-64261948D02*
X81640000Y-65684452D01*
X83460000Y-64261948D02*
X83460000Y-65684452D01*
%TO.C,L1*%
X86019052Y-58742000D02*
X83246548Y-58742000D01*
X86019052Y-62162000D02*
X83246548Y-62162000D01*
%TO.C,R2*%
X90841300Y-65007258D02*
X90841300Y-64532742D01*
X91886300Y-65007258D02*
X91886300Y-64532742D01*
%TO.C,C2*%
X86720000Y-65686252D02*
X86720000Y-64263748D01*
X88540000Y-65686252D02*
X88540000Y-64263748D01*
%TD*%
M02*
